<?xml version="1.0" standalone="no"?>
<!DOCTYPE svg PUBLIC "-//W3C//DTD SVG 1.1//EN" "http://www.w3.org/Graphics/SVG/1.1/DTD/svg11.dtd" >
<svg>
<metadata>
Created by FontForge 20110222 at Mon Mar  7 11:39:59 2011
 By www-data
Altsys Fontographer 4.1 27.01.97  FREEWARE!
</metadata>
<defs>
<font id="ChinaOneNormal" horiz-adv-x="333" >
  <font-face 
    font-family="ChinaOne"
    font-weight="400"
    font-stretch="normal"
    units-per-em="1000"
    panose-1="2 0 5 3 0 0 0 0 0 0"
    ascent="800"
    descent="-200"
    x-height="530"
    cap-height="795"
    bbox="-188 -295 1016 1104"
    underline-thickness="46"
    underline-position="-120"
    unicode-range="U+0021-2122"
  />
    <missing-glyph />
    <glyph glyph-name="exclam" unicode="!" horiz-adv-x="155" 
d="M-7 736c83 38 88 39 142 59l9 -17c0 -289 -17 -414 -74 -561c0 186 -26 359 -77 519zM36 18c-24 15 -36 30 -36 45c0 19 5 27 51 97c16 0 55 -17 58 -65c0 -40 -29 -95 -48 -95c-5 0 -13 6 -25 18z" />
    <glyph glyph-name="quotedbl" unicode="&#x22;" horiz-adv-x="504" 
d="M271 1049c61 23 121 37 182 44c15 -34 22 -70 22 -108c0 -81 -39 -176 -118 -283l-30 177c-9 57 -28 113 -56 170zM-4 1024c24 12 157 51 180 51c17 0 33 -58 33 -116c0 -79 -28 -153 -99 -264l-24 114c-21 85 -51 156 -90 215z" />
    <glyph glyph-name="numbersign" unicode="#" horiz-adv-x="754" 
d="M630 499c-6 0 -15 -2 -27 -6c-9 -19 -14 -64 -14 -137c0 -8 2 -18 6 -30h141c0 -42 0 -43 -26 -174c-42 -2 -47 -2 -115 11c-4 -23 -5 -29 -5 -163c-9 19 -18 47 -28 82l-24 85c-47 22 -131 33 -252 33c-7 -20 -7 -30 -7 -120c0 -24 -3 -44 -10 -59l-27 93
c-10 34 -23 64 -38 90h-230l219 74c-21 62 -31 140 -31 235c-14 6 -24 7 -158 21c15 8 34 16 58 23c53 15 87 27 100 34v91c0 45 2 82 5 113c15 -7 41 -14 77 -21s62 -13 76 -20v-26l-4 -66c0 -7 2 -17 6 -32l21 -12c33 6 80 17 143 31c5 11 8 23 8 36l-6 64c0 2 1 12 5 28
l18 10l153 -33l2 -26c0 -10 -3 -28 -13 -74c5 -3 13 -4 23 -4c11 0 40 4 42 4c3 0 11 -2 24 -5l-41 -152c-7 -2 -14 -3 -21 -3c-8 0 -24 2 -50 5zM351 501c-29 0 -51 2 -65 7c0 -45 -3 -86 -15 -204l209 26l-27 167c-11 3 -30 4 -57 4h-45z" />
    <glyph glyph-name="dollar" unicode="$" horiz-adv-x="368" 
d="M244 255c-37 -32 -83 -48 -138 -48c-31 0 -61 6 -89 18c3 24 3 24 24 98c16 0 39 -9 68 -27s52 -27 67 -27c29 0 50 5 65 14c0 88 -57 152 -207 240c35 63 82 107 141 132l-38 117c9 6 34 14 73 23c2 -28 4 -57 4 -59c0 -25 -4 -47 -11 -68c13 -7 17 -8 114 -26l13 -16
c-14 -64 -26 -96 -36 -96c-44 34 -82 51 -113 51c-52 0 -110 -21 -126 -48c221 -60 296 -109 296 -195c0 -30 -15 -43 -97 -100zM161 162c30 -57 35 -81 29 -154c-4 0 -4 0 -52 -8c-16 0 -24 6 -24 18c0 40 21 110 47 144z" />
    <glyph glyph-name="percent" unicode="%" horiz-adv-x="532" 
d="M235 631c0 59 -19 78 -83 93c1 9 8 29 21 62c63 -16 108 -70 108 -130c0 -73 -42 -147 -106 -175c42 67 60 109 60 150zM86 757l51 17c-39 -57 -59 -104 -59 -143c0 -57 14 -73 86 -106c-18 -43 -28 -57 -44 -57c-47 0 -95 70 -95 137c0 88 20 139 61 152zM457 795
c27 -7 44 -18 51 -32l-291 -505c-36 -61 -86 -144 -148 -252c155 373 254 574 388 789zM386 15c49 73 64 104 64 147c0 54 -30 84 -90 91c1 11 6 33 17 65c109 -43 129 -64 129 -136c0 -83 -45 -148 -120 -173v6zM234 151c0 77 34 128 103 155c-33 -68 -49 -117 -49 -146
c0 -51 28 -87 83 -107c-2 -17 -4 -19 -26 -53c-62 0 -111 66 -111 151z" />
    <glyph glyph-name="ampersand" unicode="&#x26;" horiz-adv-x="778" 
d="M674 326c0 -67 -28 -134 -83 -200c55 -54 143 -114 180 -114v-15h-213c-21 0 -25 3 -59 37c-46 -35 -109 -53 -190 -53c-148 0 -244 65 -244 165c0 63 41 105 156 161c-47 49 -70 97 -70 142c0 102 77 178 181 178s175 -55 175 -134c0 -62 -52 -112 -157 -149
c42 -48 104 -107 186 -176c5 15 8 27 8 38c0 57 -25 87 -88 104v16h218zM314 595c-37 0 -63 -35 -63 -84c0 -42 24 -89 73 -142c41 35 61 78 61 130c0 57 -28 96 -71 96zM387 28c37 0 64 11 81 33l-112 103c-41 39 -77 75 -108 110c-15 -19 -22 -47 -22 -82
c0 -137 97 -164 161 -164z" />
    <glyph glyph-name="quotesingle" unicode="'" horiz-adv-x="243" 
d="M10 1060c56 23 117 37 182 44c15 -34 22 -70 22 -108c0 -81 -39 -175 -118 -283l-30 177c-9 55 -28 111 -56 170z" />
    <glyph glyph-name="parenleft" unicode="(" horiz-adv-x="219" 
d="M56 0c-47 83 -71 195 -71 336c0 162 72 313 218 459c-82 -173 -123 -314 -123 -425c0 -77 9 -121 52 -294c-5 -7 -5 -7 -76 -76z" />
    <glyph glyph-name="parenright" unicode=")" horiz-adv-x="201" 
d="M102 413c0 109 -24 207 -73 294l87 88c47 -108 70 -228 70 -361c0 -196 -60 -327 -198 -434c76 132 114 270 114 413z" />
    <glyph glyph-name="asterisk" unicode="*" horiz-adv-x="851" 
d="M620 346c-13 0 -27 -3 -42 -8l177 -172c-71 0 -132 27 -246 103l-14 -11c-2 -14 -3 -28 -3 -42c0 -15 2 -38 10 -151l-2 -65c-39 64 -55 107 -103 244c-26 -30 -27 -31 -89 -126c-48 24 -74 45 -166 126c5 19 38 53 97 103c-14 7 -32 10 -55 10c-1 0 -93 -7 -97 -8l-48 4
c39 34 62 43 220 103c-51 54 -104 106 -137 132c36 42 43 48 158 137c10 -28 27 -58 52 -91l39 -52c7 15 11 35 11 60c-4 57 -5 87 -5 91c0 13 2 29 7 47l30 15c18 0 67 -12 169 -41l-25 -152c44 6 58 13 246 98c-160 -134 -176 -149 -206 -210c59 -5 66 -6 215 29
c-9 -13 -20 -47 -33 -100c-11 -47 -28 -75 -50 -86c-10 0 -50 5 -110 13z" />
    <glyph glyph-name="plus" unicode="+" horiz-adv-x="600" 
d="M358 520v-202h202v-116h-202v-202h-116v202h-202v116h202v202h116z" />
    <glyph glyph-name="comma" unicode="," horiz-adv-x="164" 
d="M74 -21c-53 0 -80 30 -80 90c0 49 34 84 80 84c44 0 81 -37 81 -84c0 -76 -47 -164 -115 -217l-19 21c35 34 53 69 53 106z" />
    <glyph glyph-name="hyphen" unicode="-" horiz-adv-x="282" 
d="M26 317h242l-29 -114h-241z" />
    <glyph glyph-name="period" unicode="." horiz-adv-x="168" 
d="M78 -14c-46 0 -80 36 -80 83c0 49 34 84 80 84c44 0 81 -37 81 -84s-35 -83 -81 -83z" />
    <glyph glyph-name="slash" unicode="/" horiz-adv-x="345" 
d="M86 -19h-116l262 679h118z" />
    <glyph glyph-name="zero" unicode="0" horiz-adv-x="580" 
d="M464 386c0 152 -45 218 -194 280c11 28 29 71 55 129c148 -30 247 -163 247 -331c0 -200 -114 -402 -253 -441c97 109 145 230 145 363zM9 391c0 173 103 331 253 390c-124 -148 -169 -224 -169 -324c0 -157 101 -300 241 -342l-86 -115c-139 29 -239 197 -239 391z" />
    <glyph glyph-name="one" unicode="1" horiz-adv-x="580" 
d="M221 792l37 3c14 0 34 -2 80 -10c-37 -41 -74 -65 -111 -70c-3 30 -6 76 -6 77zM216 121c0 277 30 364 143 653c-26 -97 -39 -210 -39 -338c0 -131 15 -255 45 -373c-44 -27 -89 -48 -134 -63c-10 37 -15 77 -15 121z" />
    <glyph glyph-name="two" unicode="2" horiz-adv-x="580" 
d="M31 687c56 72 147 108 272 108c45 0 83 -2 116 -7c-124 -39 -229 -114 -315 -225c-22 27 -33 46 -73 124zM349 486c13 59 33 148 61 265c18 -11 36 -21 148 -79l10 -22c-44 -261 -191 -429 -556 -640c244 256 303 330 337 476zM86 1c231 70 244 75 426 149l1 -85
c0 -23 -3 -45 -8 -64h-419z" />
    <glyph glyph-name="three" unicode="3" horiz-adv-x="580" 
d="M92 696c0 49 113 99 209 99c77 0 127 -26 127 -65c-75 0 -137 -17 -186 -50c-99 -70 -107 -75 -130 -87c0 11 -2 19 -20 103zM450 224c0 60 -24 102 -71 127c-18 9 -68 23 -150 41c6 44 15 80 26 108c55 2 57 2 137 -17l-23 37c53 45 79 101 79 170
c38 -35 57 -70 57 -107c0 -33 -11 -53 -59 -127c69 -38 110 -114 110 -201c0 -59 -80 -162 -166 -222c47 104 60 148 60 191zM25 100c10 23 36 62 79 117c14 -4 28 -19 41 -44c42 -82 43 -82 189 -140c-9 -17 -57 -33 -99 -33c-57 0 -189 53 -210 100z" />
    <glyph glyph-name="four" unicode="4" horiz-adv-x="580" 
d="M480 287c0 -83 -12 -179 -37 -287c-85 18 -103 21 -141 41c0 67 7 112 31 255h-129l-112 -7l-12 -20c-71 14 -90 23 -90 40c0 186 183 435 358 486l-19 -19c117 -220 140 -269 151 -360c10 -2 20 -3 30 -3c60 4 62 4 64 4l17 -4v-5c-12 -16 -23 -42 -50 -115zM311 761
c-118 -97 -173 -228 -216 -466c57 33 138 65 243 94c0 96 -7 218 -20 366z" />
    <glyph glyph-name="five" unicode="5" horiz-adv-x="580" 
d="M384 47c29 147 37 188 37 231c0 118 -76 189 -203 189c-11 0 -31 -5 -61 -14c-15 -5 -27 -7 -38 -7c1 7 2 17 5 30c0 20 -4 49 -13 88c-8 39 -12 69 -12 89c0 42 6 87 17 136l9 6c30 -11 59 -19 86 -24l6 -19l39 -3c36 0 47 0 103 12c90 19 147 28 172 28l-12 -14
l-17 -101c-11 -8 -25 -12 -42 -12c-89 0 -177 16 -264 49c-27 -48 -49 -125 -65 -230h8c76 28 129 42 158 42c151 0 251 -100 251 -251c0 -41 -9 -84 -26 -128zM33 141l114 121c54 -162 58 -173 125 -201c56 -24 64 -27 77 -28c-5 -22 -26 -33 -65 -33
c-106 0 -198 52 -251 141z" />
    <glyph glyph-name="six" unicode="6" horiz-adv-x="580" 
d="M451 253c0 86 -50 156 -113 156c-34 0 -49 -9 -113 -58c-15 5 -40 21 -74 48c0 -125 74 -236 223 -331c-23 -14 -25 -16 -119 -68c-126 25 -207 194 -207 395c0 203 102 356 266 400c-111 -103 -167 -212 -167 -328c60 48 125 72 196 72c119 0 189 -77 189 -208
c0 -79 -41 -157 -123 -232c28 49 42 101 42 154z" />
    <glyph glyph-name="seven" unicode="7" horiz-adv-x="580" 
d="M174 0c-16 226 74 452 265 691c-31 6 -79 9 -146 9h-78c-9 0 -28 -12 -57 -36l-57 -48l-10 160c16 12 50 18 101 18c89 0 180 -24 274 -73l23 25l-12 -34l12 -16l-10 -14l-16 1c-82 -79 -121 -291 -121 -660z" />
    <glyph glyph-name="eight" unicode="8" horiz-adv-x="580" 
d="M402 604c0 49 -22 63 -127 127v5c57 55 63 60 74 60c42 0 143 -107 143 -151c0 -63 -30 -98 -145 -190c44 87 55 114 55 149zM444 225c0 54 -29 87 -117 185l79 56c70 -33 130 -136 130 -222c0 -101 -45 -151 -175 -210c68 113 83 140 83 191zM44 196c0 43 13 83 39 120
c20 21 50 54 89 97c-62 68 -90 126 -90 184c0 96 70 159 176 159c-55 -23 -101 -84 -101 -136c0 -39 12 -50 135 -154l-78 -70c-32 5 -71 -68 -71 -126c0 -53 22 -92 66 -119c16 -10 61 -27 136 -52c-23 -58 -35 -83 -48 -99c-133 0 -253 68 -253 196z" />
    <glyph glyph-name="nine" unicode="9" horiz-adv-x="580" 
d="M438 392c0 140 -49 223 -197 332c66 55 94 72 122 72c48 0 90 -50 125 -149c29 -81 43 -152 43 -213c0 -192 -97 -369 -254 -434c107 129 161 259 161 392zM49 484c0 89 53 174 140 225c-48 -152 -48 -155 -48 -179c0 -67 59 -129 121 -129c25 0 31 4 116 60
c9 -25 22 -62 41 -109c-17 -35 -97 -68 -154 -68c-126 0 -216 84 -216 200z" />
    <glyph glyph-name="colon" unicode=":" horiz-adv-x="172" 
d="M77 -14c-46 0 -80 36 -80 83s35 84 80 84c44 0 81 -37 81 -84s-34 -83 -81 -83zM77 302c-46 0 -80 36 -80 84c0 47 35 84 80 84c44 0 81 -37 81 -84s-35 -84 -81 -84z" />
    <glyph glyph-name="semicolon" unicode=";" horiz-adv-x="174" 
d="M75 -21c-53 0 -80 30 -80 90c0 49 34 84 80 84c44 0 81 -37 81 -84c0 -76 -47 -164 -115 -217l-19 21c35 32 53 67 53 106zM75 302c-46 0 -80 36 -80 84c0 49 34 84 80 84c44 0 81 -37 81 -84s-35 -84 -81 -84z" />
    <glyph glyph-name="less" unicode="&#x3c;" horiz-adv-x="600" 
d="M46 215v90l508 216v-108l-363 -153l363 -153v-107z" />
    <glyph glyph-name="equal" unicode="=" horiz-adv-x="600" 
d="M40 318v116h520v-116h-520zM40 86v116h520v-116h-520z" />
    <glyph glyph-name="greater" unicode="&#x3e;" horiz-adv-x="600" 
d="M46 413v108l508 -216v-90l-508 -215v107l363 153z" />
    <glyph glyph-name="question" unicode="?" horiz-adv-x="553" 
d="M-40 597c81 121 222 198 366 198c68 0 116 -12 145 -35c-134 0 -246 -65 -410 -238c-21 10 -40 24 -101 75zM132 358c213 71 296 154 393 391c17 -33 25 -71 25 -112c0 -140 -136 -305 -320 -395c-11 10 -18 17 -98 116zM173 61c26 47 43 92 51 134
c37 -33 55 -73 55 -119c0 -32 -10 -75 -31 -75c-17 0 -82 23 -82 38z" />
    <glyph glyph-name="at" unicode="@" horiz-adv-x="671" 
d="M522 486c-55 -193 -60 -210 -60 -255c0 -7 3 -17 8 -32l22 -14c52 0 95 113 95 186c0 127 -108 221 -250 221c-147 0 -244 -112 -244 -284c0 -145 109 -254 253 -254c69 0 133 16 194 47l9 -55c-76 -43 -143 -65 -202 -65c-209 0 -366 140 -366 327
c0 203 151 352 356 352c185 0 321 -122 321 -288c0 -127 -80 -233 -181 -233c-47 0 -77 24 -89 71c-31 -47 -69 -70 -114 -70c-57 0 -94 47 -94 119c0 128 89 242 193 242c28 0 50 -16 66 -47l10 32h73zM270 279c0 -54 14 -81 42 -81c55 0 105 91 105 182c0 47 -9 63 -37 63
c-58 0 -110 -84 -110 -164z" />
    <glyph glyph-name="A" unicode="A" horiz-adv-x="568" 
d="M451 261l-10 -11l-13 -3c-161 81 -186 92 -238 92l12 -235c-1 0 -3 -5 -6 -15c-10 -7 -65 -37 -155 -87c-4 38 -6 76 -6 115c0 77 8 152 23 225c-7 2 -14 3 -21 3c-11 0 -26 -2 -43 -6l-2 2l7 9l71 21c75 178 174 319 295 424c-6 -17 -27 -57 -63 -118l4 -2l88 65
c113 -181 169 -427 169 -740h-8c-14 25 -14 26 -104 261zM190 385c55 0 63 -1 222 -29c-29 99 -80 179 -155 238c-57 -124 -67 -153 -67 -209z" />
    <glyph glyph-name="B" unicode="B" horiz-adv-x="559" 
d="M469 205c0 103 -67 155 -201 155c-55 0 -110 -10 -165 -31c9 -30 14 -43 89 -227l-137 -102c-44 44 -68 191 -68 387c0 63 9 136 27 217c25 111 56 166 95 166c-13 -39 -24 -77 -24 -113l1 -40h6l79 91c28 31 56 60 85 87c88 0 176 -102 176 -205c0 -30 -1 -34 -34 -118
c115 -86 147 -126 147 -197c0 -168 -113 -263 -304 -258c152 26 228 89 228 188zM78 582v-82c0 -65 5 -118 14 -159c147 94 236 137 265 137c0 71 -5 98 -40 134c-27 28 -60 42 -99 42c-42 0 -77 -18 -140 -72z" />
    <glyph glyph-name="C" unicode="C" horiz-adv-x="426" 
d="M259 648c-36 0 -90 -13 -196 -47c68 138 179 193 379 193c-2 -21 -17 -76 -45 -164c-17 0 -22 1 -138 18zM-26 434c0 113 43 236 100 269c-37 -90 -56 -164 -56 -222c0 -192 137 -272 400 -323l-27 -155c-261 -16 -417 147 -417 431z" />
    <glyph glyph-name="D" unicode="D" horiz-adv-x="556" 
d="M178 97c-46 -5 -97 -32 -154 -80c-25 123 -37 236 -37 341c0 190 34 323 111 437l-4 -32l5 -6c20 7 49 10 88 10c184 0 261 -75 346 -311c-24 -13 -65 -27 -124 -42c-62 207 -161 312 -315 334c-16 -22 -24 -102 -24 -241c0 -203 29 -310 108 -387l14 42
c187 21 297 87 328 196c2 10 8 27 17 55l3 -22c0 -234 -74 -309 -369 -391c0 11 2 41 7 97z" />
    <glyph glyph-name="E" unicode="E" horiz-adv-x="548" 
d="M163 99h-9c-45 -29 -96 -57 -154 -86c-9 37 -14 89 -14 155c0 352 40 544 123 598l-7 -33l10 -11c75 49 166 73 273 73c37 0 77 -3 120 -10c0 -26 -8 -78 -25 -155c-186 75 -206 83 -256 83c-47 0 -87 -5 -121 -14c-15 -54 -19 -121 -19 -240c96 38 172 56 227 56l127 -2
c0 -21 -5 -69 -16 -142c-27 0 -66 10 -118 31s-92 32 -120 32c-33 0 -65 -3 -97 -9c0 -51 70 -303 91 -312c18 -8 56 -12 114 -12c103 0 187 29 251 86c-21 -36 -25 -47 -70 -187c-113 0 -216 33 -310 99z" />
    <glyph glyph-name="F" unicode="F" horiz-adv-x="411" 
d="M205 709c-60 0 -124 -14 -193 -43l-3 -41c21 -170 22 -174 22 -183l6 -6c54 46 122 69 205 69c40 0 88 -6 143 -19c-35 -100 -36 -101 -40 -111c-121 60 -134 66 -185 66c-45 0 -86 -10 -123 -29c20 -83 35 -127 109 -333c-51 -29 -105 -56 -160 -79l-12 385
c0 108 9 199 27 274l-25 -2c101 92 216 138 345 138c37 0 71 -3 100 -10c0 -66 -1 -90 -8 -141c-122 49 -163 65 -208 65z" />
    <glyph glyph-name="G" unicode="G" horiz-adv-x="571" 
d="M387 141c-35 -26 -60 -62 -95 -141c-187 0 -310 156 -310 386c0 142 40 239 139 334l-9 -30c15 3 46 20 92 49c65 42 144 54 324 54c-24 -106 -35 -137 -56 -179c-146 48 -186 61 -241 61c-132 0 -168 -39 -168 -183c0 -188 109 -339 258 -339c76 0 94 21 94 110
c0 50 -11 109 -34 177l165 98c9 -28 13 -61 13 -98c0 -155 -111 -344 -200 -433z" />
    <glyph glyph-name="H" unicode="H" horiz-adv-x="570" 
d="M438 364c0 36 -2 71 -6 106c-16 -22 -21 -31 -51 -91c-26 5 -72 21 -139 47c-57 23 -104 34 -141 34c-9 -55 4 -101 111 -342c-46 -39 -107 -80 -169 -118c-35 104 -52 228 -52 371c0 157 27 291 82 403c0 -129 5 -225 16 -289h23c105 18 121 20 179 23
c10 -1 56 -2 141 -3c0 71 -18 152 -54 241c34 17 63 24 178 49l8 -19c0 -323 -47 -542 -156 -731c17 118 30 252 30 319z" />
    <glyph glyph-name="I" unicode="I" horiz-adv-x="191" 
d="M68 216c0 225 -21 361 -77 491c22 9 47 19 74 31l125 57c0 -364 -35 -586 -123 -795z" />
    <glyph glyph-name="J" unicode="J" horiz-adv-x="453" 
d="M204 0c-96 0 -174 37 -234 111c13 13 31 29 52 46l92 75l75 -155c18 -14 69 -32 154 -55l6 5c0 278 -52 505 -155 681l192 87c37 -92 55 -194 55 -306c0 -153 -32 -312 -96 -477c-46 -8 -93 -12 -141 -12z" />
    <glyph glyph-name="K" unicode="K" horiz-adv-x="640" 
d="M498 0c-29 231 -112 414 -212 445l-134 -42l-9 -9c6 -38 6 -39 76 -314c-83 -47 -102 -57 -150 -80c-33 101 -50 225 -50 372l-38 3c1 1 9 6 26 16c34 20 40 39 97 269c13 52 27 94 41 126l7 -9c0 -29 -5 -143 -13 -307l7 -2c76 0 122 46 219 211c35 60 65 99 90 116
c31 -15 80 -36 148 -61c-64 -123 -155 -214 -273 -273c188 -95 306 -213 306 -308c0 -26 -5 -60 -14 -102c-31 -20 -73 -37 -124 -51z" />
    <glyph glyph-name="L" unicode="L" horiz-adv-x="466" 
d="M0 27c-21 113 -31 212 -31 297c0 171 39 328 117 471c0 -37 -2 -78 -7 -125c-11 -107 -16 -177 -16 -210c0 -109 29 -204 107 -353c-22 -9 -52 -24 -164 -87zM325 0c-86 0 -169 15 -248 45c153 0 278 45 375 135l2 8l7 5c-4 -26 -5 -29 -53 -188c-37 -3 -64 -5 -83 -5z
" />
    <glyph glyph-name="M" unicode="M" horiz-adv-x="776" 
d="M708 29c-39 12 -51 17 -139 63c75 225 80 242 80 294c0 45 -6 77 -33 187c-59 -16 -191 -108 -204 -147c58 -147 63 -160 67 -195c-32 -39 -51 -60 -153 -166c-8 13 -12 58 -12 136v112c-9 -7 -25 -25 -49 -55c0 29 15 78 46 147c-21 110 -75 211 -186 348l-5 -6
c-13 -92 -20 -174 -20 -245c0 -97 16 -191 49 -281l51 -141c-71 -38 -125 -65 -163 -80c-31 80 -46 167 -46 262c0 171 46 346 138 524l13 -23c71 -34 186 -153 238 -237c75 111 175 200 301 269l29 -163l-44 -32c72 -136 88 -172 98 -227l-15 -10c0 -173 -9 -251 -41 -334z
" />
    <glyph glyph-name="N" unicode="N" horiz-adv-x="610" 
d="M467 42c0 7 3 28 4 34c0 110 -221 380 -372 474c-5 -29 -7 -62 -7 -99c0 -43 8 -93 24 -150c37 -129 55 -212 55 -247l-176 -54l-3 237c0 155 17 258 53 347l-34 43l120 166c142 -142 257 -354 345 -637c8 55 12 110 12 165c0 104 -14 169 -55 278l-55 145l99 27
c45 12 79 20 101 24c24 -60 28 -117 28 -279l-6 -6c0 -162 -44 -318 -133 -468z" />
    <glyph glyph-name="O" unicode="O" horiz-adv-x="615" 
d="M475 348c0 112 -49 198 -198 352l87 95c136 -41 239 -201 239 -366c0 -200 -121 -383 -269 -401c94 103 141 209 141 320zM273 778c-132 -132 -186 -224 -186 -315c0 -178 75 -269 277 -333l1 -4c-2 -9 -79 -126 -132 -126c-170 0 -250 191 -250 335
c0 195 97 342 290 443z" />
    <glyph glyph-name="P" unicode="P" horiz-adv-x="473" 
d="M63 649l-3 -148c0 -45 1 -78 10 -119c23 -10 47 -15 70 -15c105 0 207 59 308 177c-25 -161 -59 -214 -199 -274c-23 -10 -41 -15 -54 -15l-20 3c-44 76 -62 98 -94 109l-7 -6c15 -70 37 -146 90 -304c-15 -8 -66 -27 -153 -57c-16 11 -32 166 -32 256
c0 177 30 349 91 517c-3 -11 -4 -26 -4 -45v-29l6 -2c91 65 163 98 216 98c95 0 183 -74 183 -159l-2 -29c-67 49 -123 73 -166 73c-47 0 -69 -17 -172 -124c-19 27 -41 58 -68 93z" />
    <glyph glyph-name="Q" unicode="Q" horiz-adv-x="556" 
d="M429 392c0 95 -39 169 -179 322l72 81c109 0 223 -198 223 -339c0 -164 -106 -307 -250 -337c89 94 134 185 134 273zM250 780c-143 -165 -169 -206 -169 -301c0 -143 107 -264 252 -285c-65 -92 -91 -116 -121 -116c-127 0 -229 144 -229 307c0 161 136 370 267 395z
M293 100c46 0 46 0 211 5c6 -2 13 -6 21 -13l-67 -92c-74 22 -129 55 -165 100z" />
    <glyph glyph-name="R" unicode="R" horiz-adv-x="603" 
d="M317 280c-42 -21 -77 -27 -126 -21c-41 97 -57 123 -94 142c0 -39 16 -99 47 -179s47 -132 47 -157l-156 -65c-32 123 -48 234 -48 332c0 166 51 335 134 445c0 -24 -5 -60 -15 -107c21 5 51 27 88 66s59 59 65 59c217 0 284 -77 284 -298c-22 14 -52 42 -91 83
c-61 65 -119 97 -175 97c-49 0 -106 -14 -171 -42c-14 -122 -14 -132 -9 -206c51 -31 106 -46 167 -46c78 0 124 23 236 101c-22 -69 -57 -125 -105 -169c105 -35 184 -141 203 -269c-32 -22 -58 -25 -157 -37c-33 180 -59 243 -124 271z" />
    <glyph glyph-name="S" unicode="S" horiz-adv-x="511" 
d="M354 795c-141 0 -264 -65 -331 -176l-37 2c21 0 32 -6 32 -19c0 -6 -2 -13 -6 -21c-10 -21 -15 -34 -15 -40l3 -15c7 20 15 28 53 62c205 -81 223 -121 285 -383c41 25 94 57 158 98c-86 183 -242 301 -401 301l-4 7c15 28 92 52 160 52c57 0 123 -14 197 -42
c38 76 57 123 57 140l-3 9c-46 17 -95 25 -148 25zM0 193c88 -24 165 -36 230 -36c87 0 126 17 272 93c0 -162 -159 -250 -413 -250c-20 14 -60 105 -89 193z" />
    <glyph glyph-name="T" unicode="T" horiz-adv-x="464" 
d="M227 584c-21 -89 -31 -157 -31 -205c0 -81 16 -124 105 -308l-197 -71c-23 66 -34 136 -34 211c0 135 22 197 120 380c-14 4 -41 6 -81 7c-95 3 -130 16 -151 54c19 39 45 86 78 143c191 -59 204 -63 250 -63c60 0 151 20 272 59v-11c-109 -99 -217 -161 -322 -187z" />
    <glyph glyph-name="U" unicode="U" horiz-adv-x="604" 
d="M475 120l24 1c-10 -21 -38 -73 -67 -121c-168 50 -174 51 -211 51c-18 0 -36 -2 -54 -6l3 -31l-10 -14l-32 38l-56 -13c-18 -3 -30 -5 -35 -5c6 6 15 13 27 20l49 30c-84 127 -126 263 -126 407c0 116 21 222 63 318l173 -83c-8 -35 -21 -77 -39 -126
c-50 -135 -65 -182 -65 -254c0 -42 13 -122 38 -240c86 23 175 35 266 35l-34 112c-11 39 -16 78 -16 116c0 155 29 301 88 436h7l81 -70c15 -12 31 -26 51 -40c-6 -20 -16 -45 -63 -140c-53 -112 -79 -249 -79 -411z" />
    <glyph glyph-name="V" unicode="V" horiz-adv-x="647" 
d="M292 9l-12 -9c-170 76 -303 349 -303 608c0 52 4 103 12 154l228 30c-59 -228 -71 -277 -71 -345c0 -113 46 -246 137 -398c137 202 194 318 194 453c0 46 -14 142 -41 288l212 5l11 -12c0 -253 -119 -494 -376 -760z" />
    <glyph glyph-name="W" unicode="W" horiz-adv-x="779" 
d="M667 144v-9l-92 -120c-100 26 -178 97 -233 212c-26 -21 -79 -69 -158 -144c16 -55 20 -72 22 -83c-39 39 -53 53 -56 55l-22 -15l19 28c-145 244 -165 294 -165 477c0 65 6 128 18 191c26 -4 85 -21 176 -50c-21 -138 -32 -235 -32 -292c0 -76 9 -117 47 -271l129 194
l-33 187c-4 32 -4 61 -4 212c13 -99 40 -194 83 -286c25 68 37 143 37 224c0 32 -2 68 -7 108c21 -7 112 -44 151 -61l3 -33c0 -82 -61 -256 -123 -351c36 -52 68 -71 173 -132c41 79 74 241 74 358c0 42 -9 79 -49 209c12 17 55 31 129 43l18 -20
c-54 -374 -76 -462 -164 -603z" />
    <glyph glyph-name="X" unicode="X" horiz-adv-x="585" 
d="M351 254c73 -90 150 -170 232 -241c-160 100 -208 134 -282 199c-103 -86 -213 -157 -328 -212c124 126 198 210 255 288c-85 99 -158 218 -220 357c36 40 62 61 174 150c21 -47 21 -47 98 -410c65 127 109 261 134 400l8 2l181 -96c-39 -134 -169 -362 -252 -427v-10z
" />
    <glyph glyph-name="Y" unicode="Y" horiz-adv-x="565" 
d="M297 242c-231 164 -331 315 -331 501c55 7 114 11 175 11c0 -250 37 -355 168 -478c59 126 88 234 88 323c0 15 -3 36 -10 64s-10 49 -10 64l2 22l188 46l6 -28c0 -266 -128 -523 -362 -727c-19 -17 -37 -31 -55 -40c48 75 95 156 141 242z" />
    <glyph glyph-name="Z" unicode="Z" horiz-adv-x="641" 
d="M39 603c7 25 48 178 50 186l222 3c115 0 198 -11 285 -37v-7c-202 -22 -255 -30 -352 -62c-88 -40 -154 -70 -198 -89zM249 42c-80 -6 -173 -11 -176 -11l45 29c-16 10 -59 26 -128 47c101 264 289 477 496 563c37 15 67 30 90 44c-236 -211 -294 -309 -360 -616l5 -7
c107 43 224 60 415 60l2 -4c0 -7 -44 -82 -109 -147c-108 28 -201 42 -280 42z" />
    <glyph glyph-name="bracketleft" unicode="[" horiz-adv-x="370" 
d="M317 660v-40c-62 0 -86 -32 -86 -115v-539c0 -84 23 -115 86 -115v-40c-159 0 -211 38 -211 155v539c0 117 52 155 211 155z" />
    <glyph glyph-name="backslash" unicode="\" horiz-adv-x="383" 
d="M393 -19h-116l-313 679h116z" />
    <glyph glyph-name="bracketright" unicode="]" horiz-adv-x="227" 
d="M-1 -189v40c60 0 85 34 85 115v539c0 84 -23 115 -85 115v40c156 0 210 -38 210 -155v-539c0 -117 -54 -155 -210 -155z" />
    <glyph glyph-name="asciicircum" unicode="^" horiz-adv-x="600" 
d="M250 615h100l175 -365h-110l-115 254l-116 -254h-109z" />
    <glyph glyph-name="underscore" unicode="_" horiz-adv-x="500" 
d="M0 -73h500v-46h-500v46z" />
    <glyph glyph-name="grave" unicode="`" horiz-adv-x="330" 
d="M8 721c0 26 24 46 55 46c24 0 46 -13 67 -38l122 -148h-66c-139 82 -178 112 -178 140z" />
    <glyph glyph-name="a" unicode="a" horiz-adv-x="415" 
d="M257 81c-19 3 -38 -8 -69 -40c-27 -27 -44 -41 -53 -41c-87 0 -145 94 -145 234c0 185 145 322 341 322l-18 -9c0 -47 8 -105 23 -172c60 -221 69 -261 69 -320c-86 -31 -106 -38 -135 -38zM253 101c-7 37 -10 79 -10 125c0 91 13 187 43 307
c-126 -63 -198 -160 -198 -267c0 -125 46 -169 165 -165z" />
    <glyph glyph-name="b" unicode="b" horiz-adv-x="460" 
d="M45 9c-41 173 -62 331 -62 475c0 115 14 218 41 311l159 -41l3 -9c0 -17 -7 -45 -22 -85c-73 -191 -107 -395 -107 -641c95 0 271 136 271 249c0 140 -47 215 -142 225l188 81c33 0 74 -83 74 -148c0 -216 -175 -392 -422 -426z" />
    <glyph glyph-name="c" unicode="c" horiz-adv-x="341" 
d="M182 469c-33 0 -62 -7 -89 -22c11 52 84 108 138 109l60 1c23 0 40 -1 57 -10c-7 -12 -9 -18 -34 -121c-86 34 -108 43 -132 43zM-18 292c0 92 29 162 88 209c-10 -56 -15 -99 -15 -129c0 -162 58 -215 259 -253c-13 -37 -31 -77 -54 -118c-224 -6 -278 176 -278 291z
" />
    <glyph glyph-name="d" unicode="d" horiz-adv-x="454" 
d="M338 227c0 219 -36 361 -121 475c14 13 72 61 117 93c71 -123 106 -254 106 -392c0 -137 -35 -265 -104 -384zM-18 264c0 97 75 237 142 262c67 -23 112 -42 144 -60c-95 -28 -162 -133 -162 -239c0 -127 65 -184 245 -221c-8 -4 -18 -6 -31 -6c-121 0 -169 12 -245 78
c-62 55 -93 117 -93 186z" />
    <glyph glyph-name="e" unicode="e" horiz-adv-x="420" 
d="M-13 275c0 141 86 259 203 281c-83 -111 -108 -162 -108 -229c0 -49 20 -100 45 -116c95 59 154 137 154 202c0 52 -22 97 -66 134c128 0 194 -33 194 -161c0 -76 -73 -131 -265 -201c57 -51 121 -77 193 -77c18 0 36 2 54 6c-91 -114 -92 -114 -155 -114
c-132 0 -249 130 -249 275z" />
    <glyph glyph-name="f" unicode="f" horiz-adv-x="409" 
d="M261 795c104 0 110 -12 135 -69l-1 -4l-87 -44c-5 40 -20 79 -47 117zM232 472c-13 0 -25 -2 -35 -6c0 -106 14 -177 73 -408l-4 -14l-131 -44c-32 72 -42 145 -42 315c0 53 4 94 12 125l-6 15l-124 -30c77 60 104 79 145 97c55 170 68 202 109 269
c-16 -93 -24 -172 -24 -237c17 0 41 3 72 10c32 7 56 11 72 11c-5 -40 -14 -75 -27 -105c-50 0 -52 0 -90 2z" />
    <glyph glyph-name="g" unicode="g" horiz-adv-x="423" 
d="M67 -191c8 17 8 18 52 68c39 -60 72 -96 99 -108c49 57 89 192 89 291l-9 4c-31 -11 -48 -34 -53 -70l-42 -1c-121 0 -215 97 -215 223c0 151 97 278 219 278c-70 -51 -111 -134 -111 -224c0 -124 76 -196 207 -196l6 6c3 13 4 28 4 45c0 97 -20 154 -93 355
c34 16 41 20 117 65c49 -49 82 -188 82 -348c0 -244 -114 -446 -265 -446c-51 0 -80 19 -87 58z" />
    <glyph glyph-name="h" unicode="h" horiz-adv-x="461" 
d="M401 423l-8 -8c23 -160 25 -171 27 -180l20 -71c9 -32 14 -56 17 -73l-134 -48c-16 28 -24 74 -24 138c0 103 12 166 48 261c-33 19 -67 28 -104 28c-35 0 -108 -42 -137 -71c0 -36 6 -80 17 -133c25 -118 38 -192 38 -223l-150 -43c-20 53 -30 127 -30 222
c0 218 43 409 128 573c5 -33 7 -70 7 -111c0 -27 -4 -118 -10 -257c103 103 154 128 275 128c31 0 57 -5 78 -16c0 -29 -4 -36 -45 -119z" />
    <glyph glyph-name="i" unicode="i" horiz-adv-x="187" 
d="M16 671l123 22c8 -65 -13 -116 -78 -173c0 47 -15 97 -45 151zM49 121c0 101 -4 126 -38 319c13 3 30 5 142 20c10 -15 15 -47 15 -96c0 -96 -12 -124 -129 -385c7 42 10 89 10 142z" />
    <glyph glyph-name="j" unicode="j" horiz-adv-x="229" 
d="M67 545v8c9 1 37 10 84 25c1 -3 4 -8 8 -13c3 -50 -14 -89 -67 -131c0 59 -6 91 -25 111zM93 76c0 43 -12 136 -37 279c44 11 84 18 121 22c5 -19 7 -29 7 -31v-101c0 -291 -57 -430 -199 -506c90 216 108 266 108 337zM-188 -238l80 69l-3 -35c0 -33 2 -37 45 -83l-6 -8
c-56 0 -95 16 -116 49v8z" />
    <glyph glyph-name="k" unicode="k" horiz-adv-x="474" 
d="M384 7c-54 19 -159 235 -170 340l-10 4c-41 -29 -49 -37 -101 -94l45 -238c-65 -13 -117 -19 -156 -19c-9 19 -10 29 -15 92c0 343 39 535 141 703c-23 -232 -25 -290 -30 -471l6 -11c9 4 17 13 245 291h8c21 -19 52 -51 94 -96l-211 -124c29 -91 67 -131 175 -189
c40 -21 67 -41 80 -59c-8 -19 -22 -41 -41 -65l-49 -61z" />
    <glyph glyph-name="l" unicode="l" horiz-adv-x="230" 
d="M122 213c0 123 -18 219 -65 336l-68 169c36 26 91 53 161 77c51 -66 74 -252 74 -377c0 -137 -35 -276 -105 -418z" />
    <glyph glyph-name="m" unicode="m" horiz-adv-x="782" 
d="M711 0l-106 6l2 158c0 209 -40 314 -129 314c-32 0 -52 -9 -109 -47c77 -59 91 -139 98 -404l-10 -19c-26 -6 -50 -8 -117 -8c-4 0 -10 2 -18 6c-2 21 -3 42 -3 63c0 20 2 69 7 189c0 145 -45 218 -135 218c-26 0 -34 -5 -84 -39c59 -104 68 -187 68 -431
c-106 0 -108 0 -131 9c0 43 1 58 12 269c0 46 -9 103 -28 171l-28 101c34 -17 42 -24 104 -101c65 56 84 68 117 68c37 0 104 -33 139 -68c79 68 104 86 149 86c68 0 207 -130 240 -220c11 -31 17 -82 17 -152c0 -46 0 -47 -10 -159l-6 -7c-11 -2 -24 -3 -39 -3z" />
    <glyph glyph-name="n" unicode="n" horiz-adv-x="527" 
d="M372 227c0 43 -10 94 -29 151c-24 71 -54 106 -89 106c-43 0 -85 -30 -128 -90c43 -115 65 -243 65 -384l-134 -10c-5 33 -8 62 -8 87l9 183c0 75 -4 94 -49 286c38 -27 76 -76 115 -149c48 82 66 110 91 134c125 0 261 -160 284 -349c5 -40 7 -102 7 -185h-28
c-65 -4 -66 -4 -96 -4l-42 3c21 118 32 192 32 221z" />
    <glyph glyph-name="o" unicode="o" horiz-adv-x="432" 
d="M344 228c0 84 -63 157 -189 219v5l45 50c14 15 27 33 39 54c101 -34 176 -135 176 -238c0 -133 -48 -231 -143 -294c63 129 72 147 72 204zM165 0c-119 0 -173 154 -173 273c0 152 74 255 196 272c-71 -64 -107 -143 -107 -238c0 -108 57 -187 136 -187c13 0 23 1 32 4
l-49 -123z" />
    <glyph glyph-name="p" unicode="p" horiz-adv-x="431" 
d="M315 240c0 95 -42 181 -122 181c-39 0 -80 -22 -124 -65c0 -133 18 -179 148 -507c-23 -19 -36 -26 -143 -83c-49 105 -74 233 -74 384c0 135 17 269 52 404c0 -81 5 -138 16 -173l60 87c23 34 41 65 54 92c179 -19 233 -87 233 -295c0 -122 -83 -239 -242 -257
c111 85 142 130 142 232z" />
    <glyph glyph-name="q" unicode="q" horiz-adv-x="375" 
d="M217 -2c0 111 21 188 88 404c-29 10 -53 15 -74 15c-72 0 -150 -129 -150 -237c0 -74 27 -117 107 -174c-115 0 -203 73 -203 165c0 156 86 304 210 359c12 -5 26 -16 42 -34c38 -43 63 -67 76 -74l31 56l-12 -363c0 -120 15 -224 45 -312c-9 -20 -29 -29 -137 -67
c-14 85 -23 183 -23 262z" />
    <glyph glyph-name="r" unicode="r" horiz-adv-x="321" 
d="M171 460c-20 0 -24 -1 -43 -10c7 -33 11 -69 11 -106c0 -92 -20 -173 -81 -344l3 162c0 95 -21 169 -86 322l116 72c7 -6 16 -20 32 -61c59 39 126 58 200 58l-22 -123c-15 0 -36 5 -65 15s-50 15 -65 15z" />
    <glyph glyph-name="s" unicode="s" horiz-adv-x="405" 
d="M262 59c-43 -39 -98 -58 -167 -58c-38 0 -76 7 -114 20c0 26 9 69 28 129c9 -2 45 -20 108 -53c27 -14 50 -21 69 -21c24 0 47 4 69 12l7 17c-22 119 -85 186 -271 281c84 113 169 170 255 170c36 0 60 -7 127 -37c-5 -46 -14 -87 -26 -124c-109 41 -149 56 -160 59
c-47 0 -104 -21 -169 -64l237 -75c99 -31 148 -88 148 -170c0 -10 -17 -29 -52 -56l-61 -49z" />
    <glyph glyph-name="t" unicode="t" horiz-adv-x="440" 
d="M230 506l-7 -7c-7 -105 -7 -105 89 -431c-31 -22 -71 -45 -122 -68c-53 79 -80 180 -80 302c0 71 9 138 28 201c-13 5 -31 7 -56 7c-20 0 -59 -5 -116 -15c32 18 71 33 187 69c57 164 66 185 98 231c0 -21 -5 -64 -14 -128c-5 -32 -7 -58 -7 -78c24 0 37 1 220 17l15 -2
c-3 -13 -19 -55 -46 -125c-19 0 -58 6 -117 18c-29 6 -53 9 -72 9z" />
    <glyph glyph-name="u" unicode="u" horiz-adv-x="481" 
d="M451 0l-19 13c-366 -3 -437 9 -437 453c2 36 7 66 16 90l158 -30c0 -25 -2 -53 -17 -228c0 -135 38 -184 190 -244c30 -12 57 -18 81 -18c-63 86 -94 199 -94 339c0 58 5 115 15 172l13 9c12 -5 51 -17 118 -35c0 -25 -3 -62 -9 -111s-9 -85 -9 -110v-299z" />
    <glyph glyph-name="v" unicode="v" horiz-adv-x="465" 
d="M319 351c0 38 -3 58 -23 176c25 8 44 11 155 29l9 -6c0 -373 -137 -489 -310 -524c109 73 169 188 169 325zM-17 503c45 10 91 20 138 30c16 -89 24 -152 24 -189c0 -138 -4 -253 -12 -344c-20 89 -27 115 -150 503z" />
    <glyph glyph-name="w" unicode="w" horiz-adv-x="737" 
d="M487 16c-146 0 -219 108 -219 325c0 53 6 98 18 134c27 8 58 16 151 38c0 -30 -8 -93 -25 -189c-8 -46 -12 -85 -12 -116c0 -113 27 -160 98 -169c67 76 101 166 101 271c0 19 -4 42 -12 69c-18 61 -27 98 -27 113c39 23 79 45 120 64c34 -65 35 -107 40 -274
c0 -94 -107 -216 -237 -279zM-7 339c0 35 3 71 8 110c10 4 44 14 141 43l5 -5c-15 -107 -23 -195 -23 -264c0 -129 40 -176 172 -205c-13 -12 -35 -18 -68 -18c-145 0 -235 131 -235 339z" />
    <glyph glyph-name="x" unicode="x" horiz-adv-x="447" 
d="M52 0l-72 100c138 67 148 74 186 114c-69 89 -119 164 -149 226c5 19 87 76 132 87c21 -27 40 -66 57 -118c21 -65 36 -106 45 -124c67 63 124 154 171 271c-15 -122 -56 -245 -123 -368c35 -59 91 -118 152 -176c-43 10 -177 89 -191 117c-67 -69 -137 -112 -208 -129z
" />
    <glyph glyph-name="y" unicode="y" horiz-adv-x="496" 
d="M300 -12c-183 0 -264 115 -264 373c0 48 2 90 7 127c22 -2 31 0 66 12c25 9 43 13 56 13c17 0 26 -9 26 -26c0 -29 -3 -61 -8 -98c-13 -87 -19 -141 -19 -162c0 -105 57 -193 140 -214c21 19 32 86 32 192c0 76 -5 126 -25 281c28 19 124 44 163 44c7 -20 10 -47 10 -81
c0 -325 -130 -630 -305 -694c53 47 93 125 121 233zM-3 -175c11 7 46 22 105 47c-3 -7 -4 -17 -4 -28c0 -28 8 -48 33 -93c-2 -6 -26 -15 -40 -15c-84 0 -102 17 -94 89z" />
    <glyph glyph-name="z" unicode="z" horiz-adv-x="466" 
d="M-12 108c170 122 309 256 416 402c-129 -13 -259 -55 -391 -124l13 155c45 10 96 15 152 15c83 0 211 -17 232 -31l9 3c-35 -215 -147 -391 -335 -528c-26 19 -44 40 -96 108zM338 31c-64 0 -133 -7 -206 -21c104 89 213 133 327 133l2 -5c-10 -86 -12 -95 -21 -113
c-33 4 -67 6 -102 6z" />
    <glyph glyph-name="braceleft" unicode="{" horiz-adv-x="370" 
d="M111 357c0 24 -1 33 -12 154c0 104 58 149 193 149v-15c-41 -11 -62 -55 -62 -130c0 -23 1 -47 3 -72c10 -130 -14 -190 -96 -207c67 -15 100 -69 100 -161l-7 -135c0 -64 21 -102 62 -114v-15c-135 0 -193 45 -193 149c0 24 0 30 12 154c0 65 -27 106 -81 121
c54 16 81 57 81 122z" />
    <glyph glyph-name="bar" unicode="|" horiz-adv-x="222" 
d="M169 725v-725h-116v725h116z" />
    <glyph glyph-name="braceright" unicode="}" horiz-adv-x="370" 
d="M259 113c0 -25 0 -30 12 -153c0 -104 -58 -149 -193 -149v15c41 13 62 56 62 130l-7 123c0 89 33 141 100 155c-67 15 -100 69 -100 161c0 14 2 48 7 136c0 65 -21 103 -62 114v15c135 0 193 -45 193 -149c0 -25 -1 -32 -12 -155c0 -65 27 -106 81 -121
c-54 -16 -81 -57 -81 -122z" />
    <glyph glyph-name="asciitilde" unicode="~" horiz-adv-x="600" 
d="M406 174c-21 0 -65 15 -131 46c-31 15 -60 22 -86 22c-34 0 -62 -24 -84 -72l-36 90c30 57 72 86 125 86c26 0 64 -11 113 -34c50 -23 83 -34 100 -34c30 0 49 13 88 72l36 -90c-44 -63 -77 -86 -125 -86z" />
    <glyph glyph-name="exclamdown" unicode="&#xa1;" horiz-adv-x="315" 
d="M248 -16c0 -75 -35 -123 -90 -123c-54 0 -90 51 -90 123c0 21 5 50 14 88c36 123 44 163 55 265h42zM158 535c44 0 81 -37 81 -84s-35 -84 -81 -84c-47 0 -81 36 -81 84c0 47 35 84 81 84z" />
    <glyph glyph-name="cent" unicode="&#xa2;" horiz-adv-x="667" 
d="M354 548c55 0 112 -17 173 -51l-40 -135l-14 4c0 87 -52 150 -123 150c-85 0 -128 -69 -128 -207c0 -112 54 -187 137 -187c62 0 122 46 147 112l21 -23c-21 -68 -98 -121 -173 -121v-98h-47v98c-128 0 -219 104 -219 234c0 124 98 223 219 223v90h47v-89z" />
    <glyph glyph-name="sterling" unicode="&#xa3;" horiz-adv-x="667" 
d="M349 307c10 -21 15 -43 15 -67c0 -16 -8 -43 -23 -77c185 -53 186 -53 192 -53c29 0 62 31 97 93h18c-23 -125 -107 -217 -199 -217c-48 0 -69 16 -163 90c-100 -70 -149 -90 -221 -90c-63 0 -94 21 -94 62c0 78 100 128 245 128c2 57 0 74 -24 131h-103l11 39h78
c-10 35 -15 66 -15 93c0 119 80 191 212 191c55 0 110 -16 164 -48l-46 -154l-13 5c-16 100 -65 163 -125 163c-53 0 -80 -28 -80 -85c0 -53 18 -90 58 -165h171l-11 -39h-144zM211 124c-17 11 -35 17 -54 17c-41 0 -73 -27 -73 -58c0 -29 13 -44 39 -44c50 0 88 37 88 85z
" />
    <glyph glyph-name="currency" unicode="&#xa4;" horiz-adv-x="667" 
d="M85 308c0 63 16 110 47 141l-58 58l61 61l56 -57c37 30 85 45 145 45c59 0 104 -14 136 -43l56 57l61 -61l-55 -53c32 -36 48 -85 48 -148c0 -57 -15 -104 -46 -143l56 -56l-58 -58l-57 58c-35 -33 -82 -49 -142 -49s-109 16 -146 47l-58 -57l-57 59l58 58
c-31 35 -47 82 -47 141zM335 163c79 0 138 62 138 145c0 82 -64 145 -142 145c-77 0 -137 -63 -137 -145c0 -87 57 -145 141 -145z" />
    <glyph glyph-name="yen" unicode="&#xa5;" horiz-adv-x="667" 
d="M517 547c0 33 -22 51 -65 56v16h256v-17c-89 -34 -128 -82 -238 -235h111v-39h-138l-32 -45v-49h170v-39h-170c0 -121 16 -180 74 -180v-18h-317v18c59 0 86 57 86 180h-177v39h178v33l-46 61h-126v39h93c-125 177 -168 228 -209 236v16h327v-13c-18 -3 -33 -9 -44 -17
l-12 -30c7 -31 37 -81 91 -148l65 -81c93 131 123 183 123 217z" />
    <glyph glyph-name="section" unicode="&#xa7;" horiz-adv-x="556" 
d="M81 -27c31 -62 105 -100 193 -100c90 0 146 36 146 95c0 35 -33 64 -98 86c-117 39 -178 60 -183 63c-66 35 -99 86 -99 151c0 61 24 108 71 143c-25 23 -38 56 -38 97c0 99 79 152 225 152c84 0 148 -19 192 -57l-34 -71h-15c-22 59 -85 96 -160 96
c-84 0 -126 -28 -126 -83c0 -35 31 -62 93 -83l175 -59c63 -33 94 -80 94 -143c0 -47 -20 -95 -61 -143c31 -25 46 -61 46 -107c0 -105 -104 -169 -256 -169c-69 0 -134 15 -197 44l14 88h18zM108 314c0 -49 32 -82 96 -101l110 -32c43 -13 80 -26 109 -40
c17 21 26 44 26 67c0 56 -41 78 -178 124c-59 19 -102 37 -129 52c-23 -19 -34 -42 -34 -70z" />
    <glyph glyph-name="dieresis" unicode="&#xa8;" 
d="M274 593c-39 0 -71 32 -71 71s32 71 71 71s71 -32 71 -71s-32 -71 -71 -71zM59 593c-39 0 -70 31 -70 71s31 71 70 71s71 -32 71 -71s-32 -71 -71 -71z" />
    <glyph glyph-name="copyright" unicode="&#xa9;" horiz-adv-x="800" 
d="M730 320c0 -195 -139 -339 -330 -339s-330 142 -330 339c0 186 129 340 330 340c188 0 330 -146 330 -340zM649 320c0 158 -99 277 -249 277c-146 0 -249 -114 -249 -277c0 -158 99 -277 249 -277c146 0 249 114 249 277zM540 168c-19 -14 -78 -28 -122 -28
c-133 0 -207 67 -207 194c0 118 81 188 215 188c50 0 119 -15 119 -38v-68h-22c-18 55 -50 82 -95 82c-65 0 -98 -53 -98 -160c0 -116 32 -174 96 -174c48 0 86 29 113 88h21c-9 -59 -14 -80 -20 -84z" />
    <glyph glyph-name="ordfeminine" unicode="&#xaa;" horiz-adv-x="367" 
d="M139 300c-77 0 -137 29 -137 93c0 94 149 109 234 109c0 73 -15 96 -76 96c-53 0 -89 -30 -106 -90l-10 -2l-27 95c73 19 129 29 169 29c122 0 145 -39 145 -195c0 -78 3 -104 36 -111v-15h-110l-14 50c-27 -39 -61 -59 -104 -59zM108 389c0 -38 19 -57 57 -57
c62 0 71 43 71 138c-95 0 -128 -20 -128 -81z" />
    <glyph glyph-name="guillemotleft" unicode="&#xab;" horiz-adv-x="556" 
d="M401 453c27 -23 55 -42 84 -56l-94 -136l94 -137c-34 -17 -62 -35 -84 -56l-126 193zM197 453c27 -23 55 -42 84 -56l-94 -136l94 -137c-34 -17 -62 -35 -84 -56l-126 193z" />
    <glyph glyph-name="logicalnot" unicode="&#xac;" horiz-adv-x="600" 
d="M40 318v116h520v-318h-116v202h-404z" />
    <glyph glyph-name="registered" unicode="&#xae;" horiz-adv-x="800" 
d="M730 320c0 -195 -139 -339 -330 -339s-330 142 -330 339c0 186 129 340 330 340c188 0 330 -146 330 -340zM649 320c0 158 -99 277 -249 277c-146 0 -249 -114 -249 -277c0 -158 99 -277 249 -277c146 0 249 114 249 277zM435 511c70 0 105 -32 105 -95
c0 -44 -26 -83 -73 -96c85 -122 94 -136 111 -157v-13h-89c-14 0 -32 33 -96 158h-23v-102c0 -31 6 -37 40 -37v-19h-169v19c36 0 41 5 41 37v248c0 31 -6 37 -41 37v20h194zM444 412c0 70 -13 75 -74 75v-155c47 0 74 3 74 80z" />
    <glyph glyph-name="macron" unicode="&#xaf;" 
d="M0 705h345v-80h-345v80z" />
    <glyph glyph-name="degree" unicode="&#xb0;" horiz-adv-x="400" 
d="M200 630c79 0 143 -64 143 -143c0 -80 -63 -143 -143 -143c-82 0 -143 61 -143 143c0 80 63 143 143 143zM200 398c53 0 85 37 85 89c0 54 -34 89 -85 89c-53 0 -85 -37 -85 -89c0 -55 33 -89 85 -89z" />
    <glyph glyph-name="plusminus" unicode="&#xb1;" horiz-adv-x="600" 
d="M358 520v-127h202v-116h-202v-128h-116v128h-202v116h202v127h116zM560 116v-116h-520v116h520z" />
    <glyph glyph-name="acute" unicode="&#xb4;" 
d="M215 736c21 24 37 39 66 39c30 0 56 -21 56 -47c0 -29 -38 -58 -180 -141h-67z" />
    <glyph glyph-name="paragraph" unicode="&#xb6;" horiz-adv-x="620" 
d="M314 -221h-112v450c-98 0 -161 84 -161 213c0 132 70 198 209 198h329v-16l-60 -12c-13 -25 -20 -144 -20 -357c0 -143 2 -302 6 -476h-112v799h-79v-799z" />
    <glyph glyph-name="periodcentered" unicode="&#xb7;" 
d="M167 177c-47 0 -83 36 -83 83c0 46 37 83 83 83c45 0 83 -38 83 -83c0 -46 -37 -83 -83 -83z" />
    <glyph glyph-name="cedilla" unicode="&#xb8;" 
d="M171 0l-30 -62c17 3 28 5 33 5c58 0 93 -28 93 -74c0 -57 -57 -89 -134 -89c-40 0 -73 6 -99 19l15 39c19 -9 39 -13 60 -13c37 0 55 13 55 38c0 24 -13 36 -40 36c-5 0 -14 -2 -25 -6l-18 9l46 98h44z" />
    <glyph glyph-name="ordmasculine" unicode="&#xba;" horiz-adv-x="400" 
d="M200 300c-115 0 -196 68 -196 165c0 94 84 165 196 165c115 0 196 -68 196 -165c0 -94 -84 -165 -196 -165zM200 332c60 0 90 44 90 133s-30 133 -90 133s-90 -44 -90 -133s30 -133 90 -133z" />
    <glyph glyph-name="guillemotright" unicode="&#xbb;" horiz-adv-x="556" 
d="M359 68c-27 23 -55 42 -84 56l94 137l-94 136c34 17 62 35 84 56l126 -192zM155 68c-27 23 -55 42 -84 56l94 137l-94 136c34 17 62 35 84 56l126 -192z" />
    <glyph glyph-name="questiondown" unicode="&#xbf;" horiz-adv-x="574" 
d="M299 -139c-151 0 -263 76 -263 186c0 47 22 89 66 125l124 79c45 29 67 58 67 85h36c0 -21 -13 -48 -39 -83c-90 -119 -110 -152 -110 -218c0 -117 78 -140 129 -140c86 0 154 72 167 177l15 4l46 -177c-70 -25 -149 -38 -238 -38zM310 535c44 0 81 -37 81 -84
s-35 -84 -81 -84c-47 0 -81 36 -81 84c0 47 35 84 81 84z" />
    <glyph glyph-name="Agrave" unicode="&#xc0;" horiz-adv-x="600" 
 />
    <glyph glyph-name="Aacute" unicode="&#xc1;" horiz-adv-x="590" 
 />
    <glyph glyph-name="Acircumflex" unicode="&#xc2;" horiz-adv-x="595" 
 />
    <glyph glyph-name="Atilde" unicode="&#xc3;" horiz-adv-x="610" 
 />
    <glyph glyph-name="Adieresis" unicode="&#xc4;" horiz-adv-x="610" 
 />
    <glyph glyph-name="Aring" unicode="&#xc5;" horiz-adv-x="610" 
 />
    <glyph glyph-name="AE" unicode="&#xc6;" horiz-adv-x="944" 
d="M399 175v146h-186c-67 -131 -89 -174 -89 -229c0 -40 24 -66 71 -77v-18h-227v20c74 30 335 487 335 581l-9 21l-35 9v16h612l35 -174h-18c-51 101 -140 138 -337 138v-253c149 0 188 11 231 110h15v-252h-18c-39 92 -74 108 -228 108v-145c0 -119 18 -139 128 -139
c76 0 154 61 234 184h17l-56 -224h-541v15c48 19 66 64 66 163zM399 577c0 31 -8 46 -25 46c-13 0 -25 -11 -39 -42l-104 -226h168v222z" />
    <glyph glyph-name="Ccedilla" unicode="&#xc7;" horiz-adv-x="480" 
 />
    <glyph glyph-name="Egrave" unicode="&#xc8;" horiz-adv-x="580" 
 />
    <glyph glyph-name="Eacute" unicode="&#xc9;" horiz-adv-x="595" 
 />
    <glyph glyph-name="Ecircumflex" unicode="&#xca;" horiz-adv-x="565" 
 />
    <glyph glyph-name="Edieresis" unicode="&#xcb;" horiz-adv-x="570" 
 />
    <glyph glyph-name="Igrave" unicode="&#xcc;" horiz-adv-x="300" 
 />
    <glyph glyph-name="Iacute" unicode="&#xcd;" horiz-adv-x="335" 
 />
    <glyph glyph-name="Icircumflex" unicode="&#xce;" horiz-adv-x="305" 
 />
    <glyph glyph-name="Idieresis" unicode="&#xcf;" horiz-adv-x="345" 
 />
    <glyph glyph-name="Ntilde" unicode="&#xd1;" horiz-adv-x="655" 
 />
    <glyph glyph-name="Ograve" unicode="&#xd2;" horiz-adv-x="620" 
 />
    <glyph glyph-name="Oacute" unicode="&#xd3;" horiz-adv-x="675" 
 />
    <glyph glyph-name="Ocircumflex" unicode="&#xd4;" horiz-adv-x="650" 
 />
    <glyph glyph-name="Otilde" unicode="&#xd5;" horiz-adv-x="625" 
 />
    <glyph glyph-name="Odieresis" unicode="&#xd6;" horiz-adv-x="655" 
 />
    <glyph glyph-name="Oslash" unicode="&#xd8;" horiz-adv-x="833" 
d="M704 550c60 -62 90 -139 90 -230c0 -203 -152 -339 -378 -339c-97 0 -180 25 -248 76l-125 -115h-83l165 152c-58 61 -87 137 -87 226c0 202 155 340 378 340c94 0 176 -25 245 -75l128 117h80zM416 12c118 0 182 107 182 308c0 43 -4 84 -11 123l-328 -302
c28 -86 80 -129 157 -129zM416 628c-118 0 -182 -107 -182 -308c0 -48 3 -87 10 -117l327 300c-28 83 -80 125 -155 125z" />
    <glyph glyph-name="Ugrave" unicode="&#xd9;" horiz-adv-x="625" 
 />
    <glyph glyph-name="Uacute" unicode="&#xda;" horiz-adv-x="635" 
 />
    <glyph glyph-name="Ucircumflex" unicode="&#xdb;" horiz-adv-x="645" 
 />
    <glyph glyph-name="Udieresis" unicode="&#xdc;" horiz-adv-x="625" 
 />
    <glyph glyph-name="germandbls" unicode="&#xdf;" horiz-adv-x="648" 
d="M550 551c0 -46 -14 -79 -43 -100c-85 -39 -102 -48 -105 -52l4 -9c132 -23 198 -89 198 -198c0 -124 -86 -206 -215 -206c-34 0 -60 5 -79 14l-21 97l8 13c11 -5 20 -17 28 -38c15 -37 34 -55 59 -55c37 0 56 46 56 137c0 164 -22 223 -91 223c-11 0 -24 -2 -39 -6l-13 7
c-3 6 -4 11 -5 16l3 15c11 -3 25 -4 42 -4c44 0 61 39 61 133c0 119 -18 155 -83 155c-61 0 -92 -51 -92 -154v-418c0 -67 18 -103 55 -110v-14h-269v14c47 14 70 83 70 206c0 1 -5 119 -8 189c0 223 73 319 244 319c149 0 235 -64 235 -174z" />
    <glyph glyph-name="agrave" unicode="&#xe0;" horiz-adv-x="420" 
 />
    <glyph glyph-name="aacute" unicode="&#xe1;" horiz-adv-x="425" 
 />
    <glyph glyph-name="acircumflex" unicode="&#xe2;" horiz-adv-x="420" 
 />
    <glyph glyph-name="atilde" unicode="&#xe3;" horiz-adv-x="440" 
 />
    <glyph glyph-name="adieresis" unicode="&#xe4;" horiz-adv-x="435" 
 />
    <glyph glyph-name="aring" unicode="&#xe5;" horiz-adv-x="425" 
 />
    <glyph glyph-name="ae" unicode="&#xe6;" horiz-adv-x="963" 
d="M307 535c81 0 138 -18 172 -55c47 37 102 55 167 55c153 0 263 -90 263 -218h-372v-57c0 -155 57 -233 172 -233c91 0 163 72 193 192l26 -19c-35 -143 -129 -214 -282 -214c-103 0 -195 45 -237 132c-35 -96 -83 -132 -173 -132c-134 0 -211 55 -211 154
c0 119 125 182 366 182v44c0 81 -50 137 -123 137c-79 0 -133 -57 -164 -171l-15 -4l-42 158c111 33 198 49 260 49zM188 134c0 -62 37 -107 88 -107c68 0 115 73 115 176v87c-113 0 -203 -30 -203 -156zM641 503c-69 0 -104 -51 -104 -154h208c0 103 -35 154 -104 154z" />
    <glyph glyph-name="ccedilla" unicode="&#xe7;" horiz-adv-x="375" 
 />
    <glyph glyph-name="egrave" unicode="&#xe8;" horiz-adv-x="450" 
 />
    <glyph glyph-name="eacute" unicode="&#xe9;" horiz-adv-x="430" 
 />
    <glyph glyph-name="ecircumflex" unicode="&#xea;" horiz-adv-x="450" 
 />
    <glyph glyph-name="edieresis" unicode="&#xeb;" horiz-adv-x="450" 
 />
    <glyph glyph-name="igrave" unicode="&#xec;" 
 />
    <glyph glyph-name="iacute" unicode="&#xed;" 
 />
    <glyph glyph-name="icircumflex" unicode="&#xee;" 
 />
    <glyph glyph-name="idieresis" unicode="&#xef;" 
 />
    <glyph glyph-name="ntilde" unicode="&#xf1;" horiz-adv-x="525" 
 />
    <glyph glyph-name="ograve" unicode="&#xf2;" horiz-adv-x="470" 
 />
    <glyph glyph-name="oacute" unicode="&#xf3;" horiz-adv-x="465" 
 />
    <glyph glyph-name="ocircumflex" unicode="&#xf4;" horiz-adv-x="435" 
 />
    <glyph glyph-name="otilde" unicode="&#xf5;" horiz-adv-x="450" 
 />
    <glyph glyph-name="odieresis" unicode="&#xf6;" horiz-adv-x="435" 
 />
    <glyph glyph-name="divide" unicode="&#xf7;" horiz-adv-x="600" 
d="M40 318h520v-116h-520v116zM389 460c0 -49 -40 -89 -89 -89s-89 40 -89 89s40 89 89 89c47 0 89 -42 89 -89zM389 60c0 -48 -41 -88 -89 -88c-49 0 -89 39 -89 88s40 89 89 89c47 0 89 -42 89 -89z" />
    <glyph glyph-name="oslash" unicode="&#xf8;" horiz-adv-x="667" 
d="M551 456c57 -53 85 -118 85 -196c0 -161 -125 -274 -302 -274c-71 0 -133 18 -184 54l-87 -89h-63l114 117c-55 51 -82 115 -82 192c0 159 127 275 302 275c67 0 128 -17 181 -52l79 82h62zM334 17c85 0 138 91 138 243c0 36 -4 70 -11 103l-241 -250
c24 -64 62 -96 114 -96zM334 503c-85 0 -138 -91 -138 -243c0 -35 3 -68 10 -97l240 249c-24 61 -61 91 -112 91z" />
    <glyph glyph-name="ugrave" unicode="&#xf9;" horiz-adv-x="530" 
 />
    <glyph glyph-name="uacute" unicode="&#xfa;" horiz-adv-x="530" 
 />
    <glyph glyph-name="ucircumflex" unicode="&#xfb;" horiz-adv-x="515" 
 />
    <glyph glyph-name="udieresis" unicode="&#xfc;" horiz-adv-x="500" 
 />
    <glyph glyph-name="ydieresis" unicode="&#xff;" horiz-adv-x="515" 
 />
    <glyph glyph-name="OE" unicode="&#x152;" horiz-adv-x="1000" 
d="M865 213c-39 92 -80 108 -228 108v-146c0 -104 31 -138 122 -138c81 0 161 61 240 184h17l-56 -224c-86 2 -144 3 -177 3c-60 0 -84 -1 -407 -19c-213 0 -345 130 -345 339s133 340 345 340c72 -2 580 -16 581 -16l35 -174h-18c-51 101 -140 138 -337 138v-253
c149 0 188 11 231 110h15v-252h-18zM389 628c-139 0 -186 -83 -186 -308c0 -65 2 -112 7 -141c18 -111 78 -167 179 -167c42 0 96 24 96 75v470c0 47 -32 71 -96 71z" />
    <glyph glyph-name="oe" unicode="&#x153;" horiz-adv-x="1000" 
d="M696 -14c-77 0 -137 22 -181 66c-39 -44 -99 -66 -182 -66c-177 0 -302 113 -302 274c0 159 127 275 302 275c85 0 147 -22 186 -66c45 44 104 66 177 66c153 0 263 -90 263 -218h-372v-57c0 -155 57 -233 172 -233c91 0 163 72 193 192l26 -19
c-35 -143 -129 -214 -282 -214zM441 260c0 162 -41 243 -123 243c-80 0 -123 -85 -123 -243c0 -162 41 -243 123 -243c80 0 123 85 123 243zM691 503c-69 0 -104 -51 -104 -154h208c0 103 -35 154 -104 154z" />
    <glyph glyph-name="Ydieresis" unicode="&#x178;" horiz-adv-x="650" 
 />
    <glyph glyph-name="florin" unicode="&#x192;" horiz-adv-x="667" 
d="M102 -47c10 -63 30 -95 59 -95c31 0 57 80 78 239l39 293h-97l20 53h85c23 169 111 254 265 254c40 0 70 -3 89 -8l-73 -137h-8c-8 66 -22 90 -54 90c-43 0 -64 -66 -64 -199h98l-19 -53h-84c-33 -330 -43 -408 -116 -492c-55 -63 -137 -95 -247 -95c-20 0 -37 2 -52 7
l65 143h16z" />
    <glyph glyph-name="circumflex" unicode="&#x2c6;" 
d="M119 765h107l122 -178h-66l-110 96l-110 -96h-63z" />
    <glyph glyph-name="tilde" unicode="&#x2dc;" 
d="M237 605c-20 0 -48 9 -85 26c-36 17 -61 26 -74 26c-23 0 -39 -16 -48 -47h-47c19 89 62 134 129 134c15 0 49 -12 101 -35c24 -11 43 -16 56 -16c19 0 34 16 46 49h48c-16 -91 -58 -137 -126 -137z" />
    <glyph glyph-name="endash" unicode="&#x2013;" horiz-adv-x="500" 
d="M0 308h500v-96h-500v96z" />
    <glyph glyph-name="emdash" unicode="&#x2014;" horiz-adv-x="1000" 
d="M0 308h1000v-96h-1000v96z" />
    <glyph glyph-name="quoteleft" unicode="&#x2018;" horiz-adv-x="165" 
d="M73 533c51 0 81 -34 81 -91c0 -47 -35 -84 -81 -84s-80 36 -80 84c0 78 46 165 114 218l19 -21c-35 -33 -53 -69 -53 -106z" />
    <glyph glyph-name="quoteright" unicode="&#x2019;" horiz-adv-x="168" 
d="M73 485c-53 0 -80 30 -80 91c0 49 34 84 80 84c44 0 81 -37 81 -84c0 -77 -47 -167 -115 -218l-19 21c35 32 53 67 53 106z" />
    <glyph glyph-name="quotesinglbase" unicode="&#x201a;" horiz-adv-x="278" 
d="M139 -21c-54 0 -81 30 -81 90c0 47 35 84 81 84c44 0 81 -37 81 -84c0 -76 -47 -164 -115 -217l-19 21c35 32 53 67 53 106z" />
    <glyph glyph-name="quotedblleft" unicode="&#x201c;" horiz-adv-x="385" 
d="M293 533c51 0 81 -34 81 -91c0 -47 -35 -84 -81 -84c-47 0 -81 36 -81 84c0 78 48 164 115 218l19 -21c-35 -33 -53 -69 -53 -106zM73 533c51 0 81 -34 81 -91c0 -47 -35 -84 -81 -84s-80 36 -80 84c0 78 46 165 114 218l19 -21c-35 -33 -53 -69 -53 -106z" />
    <glyph glyph-name="quotedblright" unicode="&#x201d;" horiz-adv-x="388" 
d="M293 484c-54 0 -81 30 -81 91c0 47 35 84 81 84c44 0 81 -37 81 -84c0 -77 -47 -167 -115 -218l-19 21c35 32 53 67 53 106zM73 484c-53 0 -80 30 -80 91c0 49 34 84 80 84c44 0 81 -37 81 -84c0 -77 -47 -167 -115 -218l-19 21c35 32 53 67 53 106z" />
    <glyph glyph-name="quotedblbase" unicode="&#x201e;" horiz-adv-x="481" 
d="M351 -21c-54 0 -81 30 -81 90c0 47 35 84 81 84c44 0 81 -37 81 -84c0 -76 -47 -164 -115 -217l-19 21c35 32 53 67 53 106zM131 -21c-54 0 -81 30 -81 90c0 47 35 84 81 84c44 0 81 -37 81 -84c0 -76 -47 -164 -115 -217l-19 21c35 32 53 67 53 106z" />
    <glyph glyph-name="dagger" unicode="&#x2020;" horiz-adv-x="556" 
d="M53 337v101c47 -7 87 -10 121 -10h54l-6 216h112c-5 -52 -6 -92 -6 -216h53c39 0 79 3 122 10v-101c-47 7 -87 10 -121 10h-54c0 -1 5 -295 8 -471h-116c3 176 8 470 8 471h-53c-39 0 -79 -3 -122 -10z" />
    <glyph glyph-name="daggerdbl" unicode="&#x2021;" horiz-adv-x="556" 
d="M175 347c-39 0 -79 -3 -122 -10v101c48 -7 89 -10 122 -10h53l-6 216h112c-4 -44 -6 -88 -6 -133v-83h53c39 0 79 3 122 10v-101c-48 7 -89 10 -122 10h-53v-183h53c39 0 79 3 122 10v-101c-48 7 -89 10 -122 10h-53c0 -98 2 -166 6 -205h-112c4 39 6 87 6 144v61h-53
c-39 0 -79 -3 -122 -10v101c48 -7 89 -10 122 -10h53v183h-53z" />
    <glyph glyph-name="bullet" unicode="&#x2022;" horiz-adv-x="500" 
d="M75 350c0 100 75 175 175 175c98 0 175 -77 175 -175c0 -100 -75 -175 -175 -175s-175 75 -175 175z" />
    <glyph glyph-name="ellipsis" unicode="&#x2026;" horiz-adv-x="1000" 
d="M167 -14c-46 0 -81 36 -81 83s35 84 81 84c44 0 81 -37 81 -84s-34 -83 -81 -83zM500 -14c-46 0 -81 36 -81 83s35 84 81 84c44 0 81 -37 81 -84s-34 -83 -81 -83zM833 -14c-46 0 -81 36 -81 83s35 84 81 84c44 0 81 -37 81 -84s-34 -83 -81 -83z" />
    <glyph glyph-name="perthousand" unicode="&#x2030;" horiz-adv-x="1000" 
d="M703 162c0 105 58 177 146 177s146 -71 146 -177c0 -105 -58 -176 -146 -176c-89 0 -146 69 -146 176zM562 630l-388 -644h-60l388 644h60zM12 453c0 105 58 177 146 177s146 -71 146 -177c0 -105 -58 -177 -146 -177s-146 71 -146 177zM381 162c0 105 58 177 146 177
s146 -71 146 -177c0 -105 -58 -176 -146 -176c-89 0 -146 69 -146 176zM799 162c0 -106 14 -151 50 -151c34 0 50 47 50 151c0 107 -14 151 -50 151c-34 0 -50 -47 -50 -151zM477 162c0 -106 14 -151 50 -151c34 0 50 47 50 151c0 107 -14 151 -50 151
c-34 0 -50 -47 -50 -151zM108 453c0 -106 14 -151 50 -151c34 0 50 47 50 151c0 107 -14 151 -50 151c-34 0 -50 -47 -50 -151z" />
    <glyph glyph-name="guilsinglleft" unicode="&#x2039;" 
d="M188 453c27 -23 55 -42 84 -56l-94 -136l94 -137c-34 -17 -62 -35 -84 -56l-126 193z" />
    <glyph glyph-name="guilsinglright" unicode="&#x203a;" 
d="M61 124l94 137l-94 136c34 17 62 35 84 56l126 -192l-126 -193c-27 23 -55 42 -84 56z" />
    <glyph glyph-name="trademark" unicode="&#x2122;" horiz-adv-x="1000" 
d="M308 262v-26h-217v26c42 0 51 4 51 42v310h-43c-33 0 -54 -21 -63 -62h-26v88h379v-88h-26c-9 41 -30 62 -63 62h-42v-310c0 -34 3 -42 50 -42zM531 316c0 -43 11 -54 52 -54v-26h-135v26c41 0 50 11 50 59v230c0 37 -38 63 -71 63v26h157l131 -270l141 270h134v-26
c-15 0 -29 -3 -43 -8c-5 -13 -8 -24 -8 -34v-268c0 -34 3 -42 50 -42v-26h-216v26c42 0 50 8 50 42v211l-143 -278h-16l-131 278z" />
    <glyph glyph-name="nonbreakingspace" unicode="&#xa0;" horiz-adv-x="500" 
 />
    <glyph glyph-name="brokenbar" unicode="&#xa6;" horiz-adv-x="222" 
d="M169 275v-275h-116v275h116zM169 725v-275h-116v275h116z" />
    <glyph glyph-name="twosuperior" unicode="&#xb2;" horiz-adv-x="400" 
d="M246 530c0 49 -26 74 -78 74c-45 0 -86 -41 -105 -105l-8 -5l-29 107c48 19 99 29 154 29c108 0 182 -46 182 -114c0 -38 -22 -68 -65 -89c-180 -64 -192 -71 -198 -103h152c55 0 94 19 117 57h11l-45 -129h-312c0 46 19 81 58 106l108 69c39 25 58 59 58 103z" />
    <glyph glyph-name="threesuperior" unicode="&#xb3;" horiz-adv-x="400" 
d="M191 630c118 0 177 -31 177 -92c0 -49 -48 -80 -134 -86c86 0 152 -42 152 -97c0 -96 -123 -112 -190 -112c-71 0 -132 11 -183 32l36 110l11 -5c0 -65 51 -111 122 -111c56 0 88 35 88 84c0 48 -38 84 -89 84c-12 0 -26 -3 -42 -8v41c16 -5 30 -7 42 -7
c42 0 71 31 71 76c0 39 -30 65 -74 65c-52 0 -96 -40 -104 -95l-11 -4l-25 99c55 17 106 26 153 26z" />
    <glyph glyph-name="onesuperior" unicode="&#xb9;" horiz-adv-x="400" 
d="M316 250h-232v15c48 0 65 17 65 66v208c0 33 -18 50 -55 50v15c86 11 135 21 157 26v-299c0 -48 17 -66 65 -66v-15z" />
    <glyph glyph-name="onequarter" unicode="&#xbc;" horiz-adv-x="1000" 
d="M352 250h-232v15c48 0 65 17 65 66v208c0 33 -18 50 -55 50v15c86 11 135 21 157 26v-299c0 -48 17 -66 65 -66v-15zM317 -14h-67l434 644h67zM780 369v-238c47 0 83 20 108 59h11l-38 -107c-27 4 -54 6 -81 6c0 -56 15 -76 56 -76v-14h-215v14c43 0 57 20 57 76h-197
c0 19 55 85 172 198l84 82h43zM678 272l-144 -146h144v146z" />
    <glyph glyph-name="onehalf" unicode="&#xbd;" horiz-adv-x="1000" 
d="M352 250h-232v15c48 0 65 17 65 66v208c0 33 -18 50 -55 50v15c86 11 135 21 157 26v-299c0 -48 17 -66 65 -66v-15zM282 -14h-67l434 644h67zM777 278c0 49 -26 74 -78 74c-45 0 -86 -41 -105 -105l-8 -5l-29 107c48 19 99 29 154 29c108 0 182 -46 182 -114
c0 -38 -22 -68 -65 -89c-180 -64 -192 -71 -198 -103h152c55 0 94 19 117 57h11l-45 -129h-312c0 46 19 81 58 106l108 69c39 25 58 59 58 103z" />
    <glyph glyph-name="threequarters" unicode="&#xbe;" horiz-adv-x="1000" 
d="M259 630c118 0 177 -31 177 -92c0 -49 -48 -80 -134 -86c86 0 152 -42 152 -97c0 -96 -123 -112 -190 -112c-71 0 -132 11 -183 32l36 110l11 -5c0 -65 51 -111 122 -111c56 0 88 35 88 84c0 48 -38 84 -89 84c-12 0 -26 -3 -42 -8v41c16 -5 30 -7 42 -7
c42 0 71 31 71 76c0 39 -30 65 -74 65c-52 0 -96 -40 -104 -95l-11 -4l-25 99c55 17 106 26 153 26zM352 -14h-67l434 644h67zM800 369v-238c47 0 83 20 108 59h11l-38 -107c-27 4 -54 6 -81 6c0 -56 15 -76 56 -76v-14h-215v14c43 0 57 20 57 76h-197c0 19 55 85 172 198
l84 82h43zM698 272l-144 -146h144v146z" />
    <glyph glyph-name="Eth" unicode="&#xd0;" horiz-adv-x="796" 
d="M40 628v16l204 3c349 0 514 -95 514 -327c0 -226 -145 -326 -513 -326c-19 1 -96 1 -231 3v19c51 0 77 51 77 152v153h-79v37h79v158c0 65 -17 103 -51 112zM406 358v-37h-139v-164c0 -96 22 -125 104 -125c119 0 191 109 191 288c0 234 -60 288 -295 288v-250h139z" />
    <glyph glyph-name="multiply" unicode="&#xd7;" horiz-adv-x="600" 
d="M124 518l176 -176l176 176l84 -81l-178 -177l178 -178l-84 -80l-176 176l-176 -176l-84 80l178 178l-178 177z" />
    <glyph glyph-name="Yacute" unicode="&#xdd;" horiz-adv-x="667" 
d="M305 668l194 57l13 -25l-170 -50c196 -103 294 -233 294 -390c0 -159 -126 -274 -302 -274c-177 0 -302 113 -302 274c0 171 128 272 346 272c-27 35 -62 68 -105 97l-172 -51l-14 26l155 46c-21 15 -55 36 -92 54l22 21c45 -17 90 -36 133 -57zM334 17
c85 0 138 91 138 243c0 96 -23 243 -138 243c-85 0 -138 -91 -138 -243c0 -96 23 -243 138 -243z" />
    <glyph glyph-name="Thorn" unicode="&#xde;" horiz-adv-x="704" 
d="M43 644h278v-16c-34 -8 -51 -45 -51 -110c145 0 215 -5 274 -22c95 -27 143 -77 143 -149c0 -122 -122 -171 -417 -171c0 -118 20 -160 77 -160v-19h-330v19c51 0 77 51 77 152v348c0 75 -13 102 -51 112v16zM495 347c0 106 -67 139 -225 139v-278c158 0 225 33 225 139z
" />
    <glyph glyph-name="yacute" unicode="&#xfd;" horiz-adv-x="455" 
 />
    <glyph glyph-name="thorn" unicode="&#xfe;" horiz-adv-x="685" 
d="M299 -176v-17h-294v15c45 7 67 39 67 94v684c0 53 -18 79 -54 79v15c79 10 146 20 203 31l-3 -142v-157c34 73 93 109 178 109c140 0 253 -121 253 -269c0 -158 -110 -280 -253 -280c-74 0 -133 21 -178 63v-125c0 -59 27 -93 81 -100zM485 260c0 158 -44 237 -133 237
s-134 -79 -134 -237s44 -237 133 -237s134 79 134 237z" />
    <glyph glyph-name="Scaron" unicode="&#x160;" horiz-adv-x="540" 
 />
    <glyph glyph-name="scaron" unicode="&#x161;" horiz-adv-x="425" 
 />
    <glyph glyph-name="Zcaron" unicode="&#x17d;" horiz-adv-x="704" 
 />
    <glyph glyph-name="zcaron" unicode="&#x17e;" horiz-adv-x="465" 
 />
  </font>
</defs>
</svg>
